<svg xmlns="http://www.w3.org/2000/svg" width="26" height="26" viewBox="0 0 26 26"><path fill="#4A4A4A" d="M9.735 19.52a9.65 9.65 0 0 0 6.317-2.34l8.56 8.58a.81.81 0 0 0 1.15.002.812.812 0 0 0 0-1.15l-8.567-8.586c3.208-3.83 3.02-9.565-.573-13.166A9.665 9.665 0 0 0 9.735 0a9.665 9.665 0 0 0-6.888 2.86c-3.796 3.805-3.796 9.996 0 13.801a9.671 9.671 0 0 0 6.888 2.86zM3.998 4.007a8.05 8.05 0 0 1 5.737-2.382 8.05 8.05 0 0 1 5.738 2.382c3.165 3.173 3.165 8.334 0 11.507a8.05 8.05 0 0 1-5.738 2.382 8.05 8.05 0 0 1-5.737-2.382C.834 12.341.834 7.18 3.998 4.007z"/></svg>